<?xml version="1.0" standalone="no"?>
<!DOCTYPE svg PUBLIC "-//W3C//DTD SVG 20010904//EN"
 "http://www.w3.org/TR/2001/REC-SVG-20010904/DTD/svg10.dtd">
<svg version="1.0" xmlns="http://www.w3.org/2000/svg"
 width="351.000000pt" height="335.000000pt" viewBox="0 0 351.000000 335.000000"
 preserveAspectRatio="xMidYMid meet">

<g transform="translate(0.000000,335.000000) scale(0.100000,-0.100000)"
fill="#000000" stroke="none">
<path d="M1583 3210 c-307 -35 -594 -168 -816 -379 -206 -197 -345 -454 -393
-731 -20 -116 -14 -416 10 -520 8 -36 13 -66 11 -68 -2 -2 -59 12 -127 32 -68
20 -127 36 -131 36 -4 0 -7 -191 -7 -425 l0 -424 82 -26 c91 -29 244 -66 353
-85 88 -16 93 -19 189 -103 197 -174 455 -303 708 -354 119 -24 384 -24 498 0
325 70 570 202 795 431 l100 102 160 42 c88 24 203 55 255 70 l95 28 6 199 c4
110 7 294 8 409 l1 209 -32 -6 c-18 -3 -82 -20 -142 -36 l-108 -30 6 37 c4 20
9 114 12 209 5 137 3 192 -11 274 -90 543 -529 980 -1090 1089 -120 23 -325
33 -432 20z m-139 -157 c-21 -14 -84 -46 -138 -70 -199 -87 -329 -176 -462
-314 -205 -215 -308 -458 -336 -796 -10 -122 -14 -143 -29 -143 -39 0 -29 293
16 460 30 109 104 270 171 372 93 139 257 293 409 381 107 62 309 135 379 136
l29 1 -39 -27z m849 -58 c244 -104 484 -331 606 -573 91 -180 146 -456 127
-636 -6 -54 -11 -66 -25 -66 -14 0 -20 11 -25 53 -3 28 -6 72 -6 96 0 80 -31
255 -61 345 -101 302 -317 555 -599 700 -50 26 -115 56 -143 65 -46 16 -52 21
-55 49 l-3 31 53 -15 c29 -9 88 -31 131 -49z m-360 29 l38 -7 -69 -33 c-123
-60 -190 -161 -199 -303 -10 -135 48 -275 141 -343 59 -44 141 -79 200 -87
l51 -7 -35 -22 c-55 -35 -138 -63 -205 -69 -114 -10 -242 43 -328 137 -156
170 -154 421 5 595 93 102 264 161 401 139z m-692 -245 c18 -18 19 -23 6 -42
-27 -41 -77 -29 -77 17 0 46 37 59 71 25z m827 -34 c7 -14 24 -30 39 -36 l28
-11 -32 -16 c-18 -8 -35 -24 -39 -34 -7 -24 -21 -23 -29 2 -4 11 -18 26 -33
34 l-27 14 27 12 c14 7 29 23 32 36 8 31 20 30 34 -1z m-1008 -176 c0 -33 36
-59 83 -59 l42 0 -39 -33 c-38 -33 -39 -35 -29 -73 6 -21 14 -48 18 -59 6 -16
1 -13 -26 11 -67 60 -64 59 -113 30 -25 -14 -47 -26 -50 -26 -3 0 2 16 10 36
19 46 14 58 -32 82 l-37 19 53 6 c61 7 75 17 90 63 12 35 30 37 30 3z m1375
-63 c9 -11 33 -20 67 -25 l53 -6 -45 -26 c-44 -24 -45 -26 -43 -73 l1 -47 -33
25 c-44 34 -62 33 -103 -6 l-33 -33 7 30 c16 61 12 69 -45 96 l-55 26 55 7
c70 9 96 27 122 84 l21 47 8 -40 c5 -22 15 -48 23 -59z m277 -173 c24 -21 23
-58 -2 -83 -55 -55 -136 24 -83 82 20 22 61 23 85 1z m-1097 -256 c64 -39 70
-57 73 -224 l3 -153 -45 0 -46 0 0 135 c0 122 -2 137 -20 155 -19 19 -33 20
-399 20 -358 0 -380 -1 -402 -19 -23 -18 -24 -25 -27 -173 l-4 -153 -44 -27
-45 -28 3 194 c3 216 6 224 79 274 l33 23 406 -3 c372 -3 407 -4 435 -21z
m1126 0 c18 -12 44 -38 56 -56 22 -33 23 -43 23 -233 l0 -200 -25 31 c-14 16
-34 33 -44 36 -16 5 -19 23 -26 163 -5 121 -10 161 -22 175 -15 16 -47 17
-398 17 -362 0 -384 -1 -406 -19 -23 -18 -24 -26 -27 -155 l-4 -136 -44 0 -44
0 0 135 c0 143 9 184 48 218 48 43 78 46 488 47 391 0 391 0 425 -23z m-1253
-239 c7 -7 12 -39 12 -75 l0 -63 -255 0 -255 0 0 69 c0 46 4 71 13 74 6 3 116
6 243 6 166 1 233 -2 242 -11z m990 0 c7 -7 12 -39 12 -75 l0 -63 -260 0 -260
0 0 56 c0 99 -14 94 258 94 172 0 241 -3 250 -12z m177 -242 c46 -21 105 -75
105 -96 0 -8 -3 -9 -150 -39 -100 -20 -363 -59 -590 -87 -206 -25 -688 -30
-922 -10 -188 16 -407 49 -435 64 -30 17 99 153 169 179 24 8 260 12 903 12
l870 1 50 -24z m619 -167 l7 -46 -41 -12 -40 -12 0 -204 c0 -112 -4 -206 -8
-209 -5 -3 -28 -8 -50 -12 l-42 -7 0 201 0 201 -41 -14 c-23 -8 -43 -15 -45
-15 -2 0 -4 24 -4 53 l0 52 128 36 c70 20 128 35 128 35 1 -1 4 -22 8 -47z
m-2781 -109 c4 0 7 -22 7 -50 0 -53 -6 -58 -52 -41 -13 4 -36 11 -51 15 l-28
7 3 -58 3 -58 53 -15 52 -15 0 -46 0 -47 -55 13 -55 12 0 -62 0 -62 65 -18 65
-17 0 -49 c0 -27 -3 -49 -7 -49 -8 0 -177 44 -215 56 -17 5 -18 27 -18 273 0
147 3 270 6 273 3 3 53 -9 112 -28 59 -18 110 -34 115 -34z m2457 -88 c0 -88
3 -200 6 -250 7 -91 7 -91 -18 -101 -66 -25 -68 -24 -125 87 l-53 102 0 -119
0 -119 -44 -11 c-25 -6 -47 -11 -50 -11 -3 0 -6 114 -6 254 l0 254 47 7 c26 4
49 3 50 -2 2 -4 23 -48 47 -98 l44 -90 1 71 c1 39 4 92 7 117 6 39 10 46 38
55 58 19 56 25 56 -146z m-2342 57 c26 -7 52 -15 57 -20 6 -4 21 -39 35 -78
13 -39 27 -71 30 -71 3 0 18 29 34 65 l28 65 37 -6 c76 -12 75 -4 15 -127 -29
-62 -54 -119 -54 -128 0 -8 25 -75 55 -149 31 -73 54 -134 53 -135 -2 -1 -25
1 -53 4 -54 7 -55 8 -99 111 l-23 55 -32 -63 c-17 -34 -37 -62 -44 -62 -37 0
-87 14 -87 24 0 6 24 61 54 122 l53 110 -57 147 c-32 81 -56 147 -53 147 2 0
25 -5 51 -11z m1962 -43 l0 -53 -60 -12 -60 -12 0 -53 0 -53 43 8 c67 13 67
13 67 -36 0 -43 -1 -44 -37 -50 -74 -13 -73 -12 -73 -72 l0 -55 38 6 c20 4 49
9 65 12 26 5 27 4 27 -40 0 -43 -2 -46 -34 -54 -98 -28 -187 -45 -193 -38 -5
4 -9 120 -11 257 l-3 248 23 6 c13 3 64 14 113 24 50 11 91 19 93 20 1 1 2
-23 2 -53z m-1506 -37 c2 -2 20 -38 39 -79 l34 -75 23 50 c12 28 26 60 31 72
7 20 13 22 61 16 29 -3 54 -7 56 -8 1 -1 -24 -57 -57 -124 l-60 -121 60 -136
c33 -75 58 -138 56 -140 -8 -8 -117 10 -117 20 -1 6 -14 38 -29 71 l-28 60
-33 -67 -34 -67 -50 6 c-28 3 -52 7 -54 8 -1 1 23 56 53 123 30 67 55 125 55
130 0 5 -25 65 -55 133 -30 68 -55 129 -55 135 0 10 93 4 104 -7z m1086 -195
c0 -200 1 -215 18 -210 9 3 38 8 65 12 l47 6 0 -50 c0 -40 -4 -52 -17 -56 -38
-11 -206 -35 -214 -30 -10 6 -12 527 -2 537 3 4 28 7 55 7 l48 0 0 -216z
m-510 126 l0 -50 -63 0 c-35 0 -66 -2 -68 -4 -2 -2 -2 -27 -1 -54 l4 -50 56
-6 57 -6 -3 -45 -4 -45 -54 0 -54 0 0 -60 0 -60 70 0 70 0 0 -49 c0 -28 -4
-53 -10 -56 -5 -3 -61 -3 -125 1 l-115 7 0 263 0 264 120 0 120 0 0 -50z m200
-161 l0 -212 64 6 64 6 4 -50 c1 -28 0 -53 -3 -55 -3 -2 -56 -7 -118 -10
l-111 -7 0 266 0 267 50 0 50 0 0 -211z m700 -404 c0 -11 -163 -86 -176 -81
-45 17 15 56 116 75 60 12 60 12 60 6z m-1467 -51 c41 -7 43 -11 23 -40 -14
-19 -15 -18 -60 3 -73 36 -57 52 37 37z m1157 -16 c0 -5 0 -13 0 -19 0 -7 -11
-8 -30 -4 -41 9 -41 -19 -1 -33 42 -15 57 -47 37 -78 -20 -29 -53 -38 -90 -24
-39 14 -28 36 17 32 50 -5 50 22 1 43 -31 13 -35 18 -32 47 2 22 10 36 26 44
24 12 71 6 72 -8z m-917 -39 l37 -52 0 47 c0 39 3 46 20 46 18 0 20 -7 20 -85
0 -76 -2 -85 -19 -85 -11 0 -33 21 -55 52 l-36 52 0 -52 c0 -45 -3 -52 -20
-52 -19 0 -20 7 -20 90 0 79 2 90 18 90 9 0 34 -23 55 -51z m380 34 c4 -2 7
-11 7 -19 0 -13 -8 -14 -37 -9 -25 4 -44 1 -57 -8 -21 -15 -25 -60 -6 -82 14
-17 60 -21 60 -5 0 6 -4 10 -10 10 -5 0 -10 9 -10 20 0 16 7 20 31 20 29 0 30
-1 27 -42 -3 -38 -6 -43 -35 -52 -45 -12 -91 8 -110 50 -33 69 30 144 107 127
14 -3 28 -8 33 -10z m-195 -75 c-3 -75 -5 -83 -23 -83 -18 0 -20 8 -23 83 l-3
82 26 0 26 0 -3 -82z m302 47 c0 -32 2 -35 30 -35 28 0 30 3 30 36 0 31 3 35
23 32 20 -3 22 -9 25 -86 3 -82 2 -83 -20 -80 -17 2 -24 11 -26 31 -3 23 -8
27 -33 27 -26 0 -29 -3 -29 -30 0 -23 -4 -30 -20 -30 -18 0 -20 7 -20 85 0 78
2 85 20 85 16 0 20 -7 20 -35z m290 20 c0 -9 -9 -15 -25 -15 -24 0 -25 -2 -25
-70 0 -63 -2 -70 -20 -70 -18 0 -20 7 -20 70 0 68 -1 70 -25 70 -16 0 -25 6
-25 15 0 12 14 15 70 15 56 0 70 -3 70 -15z"/>
</g>
</svg>
